<svg width="132" height="70" fill="none" xmlns="http://www.w3.org/2000/svg"><path d="M.873 32V.008h10.459c3.472 0 6.08.718 7.822 2.153 1.758 1.436 2.637 3.56 2.637 6.372 0 1.494-.425 2.82-1.274 3.977-.85 1.143-2.007 2.03-3.472 2.659 1.728.483 3.09 1.406 4.087 2.768 1.01 1.348 1.516 2.96 1.516 4.834 0 2.872-.93 5.127-2.79 6.768-1.86 1.64-4.49 2.461-7.889 2.461H.873zm4.219-14.963V28.55h6.965c1.963 0 3.508-.505 4.636-1.516 1.143-1.025 1.714-2.431 1.714-4.219 0-3.852-2.095-5.778-6.284-5.778H5.092zm0-3.384h6.372c1.846 0 3.318-.462 4.416-1.384 1.114-.923 1.67-2.176 1.67-3.758 0-1.758-.512-3.032-1.538-3.823-1.025-.806-2.585-1.209-4.68-1.209h-6.24v10.174zm33.266 6.24c0-2.329.455-4.424 1.363-6.284.923-1.86 2.197-3.296 3.823-4.307 1.64-1.01 3.508-1.516 5.603-1.516 3.237 0 5.852 1.12 7.844 3.362 2.007 2.241 3.01 5.222 3.01 8.943v.285c0 2.315-.446 4.395-1.34 6.24-.879 1.832-2.146 3.26-3.801 4.285-1.64 1.026-3.53 1.539-5.67 1.539-3.222 0-5.837-1.121-7.843-3.362-1.992-2.242-2.989-5.208-2.989-8.9v-.285zm4.087.483c0 2.637.608 4.754 1.824 6.35 1.23 1.597 2.871 2.396 4.922 2.396 2.065 0 3.706-.806 4.922-2.417 1.216-1.626 1.824-3.897 1.824-6.812 0-2.607-.623-4.717-1.868-6.328-1.23-1.626-2.871-2.439-4.922-2.439-2.007 0-3.625.798-4.856 2.395-1.23 1.597-1.846 3.882-1.846 6.855zm32.74-.483c0-2.329.454-4.424 1.362-6.284.923-1.86 2.197-3.296 3.823-4.307 1.64-1.01 3.508-1.516 5.603-1.516 3.237 0 5.852 1.12 7.844 3.362 2.007 2.241 3.01 5.222 3.01 8.943v.285c0 2.315-.446 4.395-1.34 6.24-.879 1.832-2.146 3.26-3.801 4.285-1.64 1.026-3.53 1.539-5.669 1.539-3.223 0-5.837-1.121-7.844-3.362-1.992-2.242-2.988-5.208-2.988-8.9v-.285zm4.087.483c0 2.637.607 4.754 1.823 6.35 1.23 1.597 2.871 2.396 4.922 2.396 2.066 0 3.706-.806 4.922-2.417 1.216-1.626 1.824-3.897 1.824-6.812 0-2.607-.623-4.717-1.868-6.328-1.23-1.626-2.871-2.439-4.922-2.439-2.007 0-3.625.798-4.856 2.395-1.23 1.597-1.846 3.882-1.846 6.855zm37.661-12.15l.131 2.988c1.817-2.285 4.19-3.428 7.12-3.428 5.024 0 7.558 2.835 7.602 8.504V32h-4.065V16.268c-.014-1.714-.41-2.981-1.186-3.802-.762-.82-1.956-1.23-3.582-1.23-1.318 0-2.475.351-3.472 1.054-.996.704-1.772 1.627-2.329 2.77V32h-4.065V8.226h3.846zm-84.905 43l6.555 15.687 6.58-15.686h2.002V69h-1.502v-7.74l.122-7.934L39.17 69h-1.16l-6.591-15.613.122 7.825V69h-1.502V51.227h1.99zM59.665 69c-.147-.415-.24-1.03-.281-1.843a5.136 5.136 0 01-1.965 1.55 6.016 6.016 0 01-2.515.537c-1.27 0-2.3-.354-3.089-1.062-.78-.708-1.171-1.603-1.171-2.685 0-1.286.533-2.303 1.599-3.052 1.074-.749 2.567-1.123 4.48-1.123h2.649V59.82c0-.944-.293-1.684-.88-2.221-.577-.546-1.423-.818-2.538-.818-1.018 0-1.86.26-2.527.781-.668.52-1.001 1.148-1.001 1.88l-1.465-.012c0-1.05.488-1.958 1.465-2.722.976-.774 2.177-1.16 3.6-1.16 1.474 0 2.633.37 3.48 1.11.854.733 1.294 1.758 1.318 3.077v6.25c0 1.278.135 2.234.403 2.868V69h-1.562zm-4.59-1.05c.976 0 1.847-.236 2.612-.708.773-.472 1.335-1.103 1.685-1.892v-2.905h-2.613c-1.456.016-2.596.285-3.418.806-.822.512-1.233 1.22-1.233 2.123 0 .741.273 1.356.818 1.844.554.488 1.27.732 2.149.732zm15.759-10.913a5.454 5.454 0 00-.989-.085c-.911 0-1.684.256-2.32.769-.626.504-1.073 1.24-1.342 2.21V69H64.73V55.792h1.429l.024 2.1c.773-1.563 2.014-2.344 3.723-2.344.407 0 .729.053.965.158l-.037 1.331zm5.456 5.31l-1.672 1.611V69h-1.465V50.25h1.465v12l1.38-1.49 5.053-4.968h1.843l-5.603 5.566L83.383 69h-1.746l-5.347-6.653zm13.99 6.897c-1.123 0-2.14-.277-3.052-.83-.903-.553-1.607-1.322-2.112-2.307-.504-.993-.757-2.104-.757-3.333v-.525c0-1.269.245-2.412.733-3.43.496-1.017 1.184-1.814 2.063-2.392a5.049 5.049 0 012.856-.88c1.603 0 2.873.55 3.809 1.649.944 1.09 1.416 2.584 1.416 4.48v.818h-9.424v.28c0 1.498.427 2.747 1.282 3.748.862.993 1.945 1.49 3.247 1.49.781 0 1.469-.143 2.063-.428.602-.285 1.147-.74 1.636-1.367l.915.696c-1.074 1.554-2.633 2.331-4.675 2.331zm-.269-12.451c-1.098 0-2.026.403-2.783 1.209-.749.805-1.204 1.887-1.367 3.246h7.922v-.158c-.04-1.27-.403-2.303-1.086-3.1-.684-.798-1.579-1.197-2.686-1.197zm10.34-4.382v3.381h2.734v1.196h-2.734v8.802c0 .732.13 1.277.39 1.635.269.358.712.537 1.331.537.244 0 .639-.04 1.184-.122l.061 1.197c-.383.138-.903.207-1.563.207-1.001 0-1.729-.289-2.185-.867-.455-.585-.683-1.444-.683-2.575v-8.814h-2.43v-1.196h2.43v-3.381h1.465z" fill="#747474"/></svg>