<svg width="28" height="28" fill="none" xmlns="http://www.w3.org/2000/svg"><g clip-path="url(#clip0_1_157)"><path d="M12.092 24.183c6.678 0 12.091-5.413 12.091-12.091C24.183 5.414 18.77 0 12.092 0 5.414 0 0 5.414 0 12.092c0 6.678 5.414 12.091 12.092 12.091z" fill="#FAF7F1"/><path fill-rule="evenodd" clip-rule="evenodd" d="M12.47 21h4.524c1.557 0 2.546-.951 2.546-2.436 0-1.77-1.425-2.265-2.946-2.265H12.47v4.7zm0-6.224h3.612c2.051 0 2.888-.742 2.888-2.17 0-1.884-1.33-2.15-2.888-2.15h-3.611v4.32zm-1.803-5.843h4.92c1.198 0 2.774 0 3.591.495a3.226 3.226 0 011.595 2.836c0 1.447-.758 2.532-2.013 3.045v.038c1.673.343 2.584 1.599 2.584 3.274 0 1.998-1.425 3.902-4.123 3.902h-6.554V8.933z" fill="#7F7F7F"/><mask id="mask0_1_157" style="mask-type:alpha" maskUnits="userSpaceOnUse" x="3" y="3" width="25" height="25"><path d="M3.733 3.851h24.15V28H3.733V3.851z" fill="#fff"/></mask><g mask="url(#mask0_1_157)"><path fill-rule="evenodd" clip-rule="evenodd" d="M15.807 3.851c-6.668 0-12.074 5.406-12.074 12.075C3.733 22.594 9.14 28 15.807 28c6.67 0 12.076-5.406 12.076-12.074 0-6.669-5.406-12.075-12.076-12.075zm10.484 12.08c0 5.79-4.693 10.484-10.484 10.484-5.789 0-10.482-4.694-10.482-10.483 0-5.79 4.693-10.482 10.482-10.482 5.79 0 10.484 4.693 10.484 10.482z" fill="#7F7F7F"/></g></g><defs><clipPath id="clip0_1_157"><path fill="#fff" d="M0 0h28v28H0z"/></clipPath></defs></svg>