<svg width="28" height="28" fill="none" xmlns="http://www.w3.org/2000/svg"><g clip-path="url(#clip0_1_146)"><path d="M11.701 23.403c6.463 0 11.702-5.24 11.702-11.702S18.163 0 11.7 0 0 5.239 0 11.701c0 6.463 5.239 11.702 11.701 11.702z" fill="#FAF7F1"/><path fill-rule="evenodd" clip-rule="evenodd" d="M26.33 3.9h-2.927a8.74 8.74 0 00-8.776 8.777v.39c-1.658-1.951-4.095-3.315-6.826-3.315H4.876c-.586 0-.976.39-.976.975v2.925a8.74 8.74 0 008.777 8.776h1.95v3.901c0 .584.39.976.975.976.586 0 .976-.392.976-.976v-5.851h1.95a8.74 8.74 0 008.776-8.777V4.876c0-.586-.39-.976-.976-.976h.001zM12.676 20.478a6.784 6.784 0 01-6.826-6.826v-1.95H7.8a6.784 6.784 0 016.826 6.826v1.95h-1.95zm12.677-8.777a6.784 6.784 0 01-6.826 6.827h-1.951v-5.851a6.784 6.784 0 016.826-6.826h1.95v5.85z" fill="#747474"/></g><defs><clipPath id="clip0_1_146"><path fill="#fff" d="M0 0h28v28H0z"/></clipPath></defs></svg>