<svg width="28" height="28" fill="none" xmlns="http://www.w3.org/2000/svg"><path d="M12.312 24.623c6.8 0 12.311-5.512 12.311-12.311C24.623 5.512 19.111 0 12.312 0 5.512 0 0 5.512 0 12.312s5.512 12.311 12.312 12.311z" fill="#FAF7F1"/><path d="M17.668 8.588l-.633-.094-.282-.561a.905.905 0 00-.803-.493.89.89 0 00-.805.479l-.286.557-.634.084a.877.877 0 00-.725.588.858.858 0 00.227.897l.457.438-.109.613a.86.86 0 00.357.855.93.93 0 00.438.166.929.929 0 00.507-.092l.568-.286.567.294a.916.916 0 00.947-.058.847.847 0 00.358-.85l-.108-.615.458-.43a.844.844 0 00.228-.891.9.9 0 00-.727-.6zm-.874 1.382a.496.496 0 00-.15.441l.108.623-.572-.298a.519.519 0 00-.479-.003l-.574.288.112-.62a.487.487 0 00-.148-.442l-.465-.442.642-.086a.507.507 0 00.387-.27l.29-.563.285.567a.52.52 0 00.387.275l.641.096-.464.434zm6.835.15l-.458.428.109.612a.848.848 0 01-.358.85.913.913 0 01-.945.062l-.567-.294-.568.285a.917.917 0 01-.952-.075.858.858 0 01-.351-.854l.025-.147a.506.506 0 01.592-.405c.25.042.424.25.428.484l.585-.296a.539.539 0 01.478.004l.573.298-.11-.623a.476.476 0 01.15-.44l.465-.433-.64-.095a.512.512 0 01-.387-.276l-.287-.567-.289.567a.504.504 0 01-.387.269l-.652.088a.49.49 0 01-.054.628.524.524 0 01-.726.009l-.11-.104a.856.856 0 01-.229-.897.883.883 0 01.721-.59l.639-.084.285-.556a.885.885 0 01.801-.48.898.898 0 01.807.49l.284.562.633.095a.886.886 0 01.723.596.833.833 0 01-.228.889zm-10.704-.975a.895.895 0 00-.725-.6l-.633-.095-.282-.56a.902.902 0 00-.802-.493.889.889 0 00-.805.48l-.286.556-.633.083a.876.876 0 00-.726.589.857.857 0 00.226.896l.458.439-.108.612a.858.858 0 00.356.855.917.917 0 00.945.075l.568-.287.565.296a.916.916 0 00.946-.059.85.85 0 00.358-.85l-.109-.616.458-.43a.845.845 0 00.23-.891zm-1.596.787a.497.497 0 00-.15.44l.108.624-.573-.299a.522.522 0 00-.478-.003l-.575.289.112-.62a.485.485 0 00-.147-.442l-.464-.443.641-.084a.507.507 0 00.387-.27l.289-.564.287.566a.515.515 0 00.386.276l.64.096-.463.434zm13.077 9.642a.494.494 0 00-.296-.645.512.512 0 00-.662.283 6.25 6.25 0 01-.65 1.238l.01-6.273 1.49.011c-.081 1.536-.22 2.71-.432 3.657a.5.5 0 00.391.595c.02.005.038.006.058.009a.505.505 0 00.552-.385c.248-1.108.404-2.487.482-4.337l.004-.03-.002-.012c.081-1.852.092-4.114.096-6.665a1.468 1.468 0 00-.451-1.063 1.555 1.555 0 00-1.089-.448l-2.832-.022a.503.503 0 00-.515.495c-.001.276.226.5.513.503l2.832.021a.518.518 0 01.515.506c-.003 2.341-.013 4.433-.079 6.181l-7.131-.053-2.539-.018h-.005l-2.537-.022-.01-.002-2.536-.017-2.046-.016a97.7 97.7 0 01-.05-2.671.51.51 0 00-.518-.498.503.503 0 00-.51.5c.01 1.189.03 2.217.065 3.14l-.002.022c0 .02.004.041.007.058.184 4.532.858 6.679 2.657 8.467.003.002.006.002.008.005.004.004.007.009.012.011.65.646 1.46 1.262 2.625 1.996a63.642 63.642 0 002.566 1.513l.757.428a1.58 1.58 0 001.53.014c.266-.143.518-.285.765-.422a65.646 65.646 0 002.567-1.475c1.167-.72 1.98-1.323 2.633-1.959a7.287 7.287 0 001.758-2.62zm-6.684-5.435l1.517.012-.015 9.308c-.43.26-.922.541-1.518.877l.016-10.197zm-10.146-.077l1.49.011-.01 6.276c-.919-1.373-1.322-3.166-1.479-6.287zm8.09 11.113l-.502-.284.004-2.195a.51.51 0 00-.514-.502.502.502 0 00-.513.495l-.002 1.619c-.51-.292-1.027-.6-1.517-.904l.009-5.414a.51.51 0 00-.513-.502.502.502 0 00-.514.495l-.007 4.759a12.335 12.335 0 01-1.514-1.197l.012-7.461 1.514.012-.005 2.355a.508.508 0 00.462.5c.018.002.033.003.052.002a.502.502 0 00.513-.494l.005-2.356 1.517.012-.01 7.103c-.002.258.2.471.461.499l.051.003a.503.503 0 00.515-.495l.01-7.103 1.515.012-.017 10.774-.501.275a.532.532 0 01-.51-.008zm4.587-2.371l.014-8.648 1.514.01-.013 7.465c-.412.382-.898.76-1.515 1.173zM6.45 6.876c.002-.826.694-1.494 1.542-1.486l10.176.076c.29.005.514.227.514.503a.504.504 0 01-.515.495L7.992 6.386a.504.504 0 00-.515.497v2.036a.504.504 0 01-.566.494.51.51 0 01-.462-.497V6.875v.001zm12.659-.859a.443.443 0 01.001-.1.434.434 0 01.02-.095.689.689 0 01.037-.09.383.383 0 01.058-.08.571.571 0 01.154-.122.63.63 0 01.192-.055.527.527 0 01.503.266c.013.03.03.06.038.09a.38.38 0 01.018.097.45.45 0 01-.02.195.537.537 0 01-.037.09.757.757 0 01-.058.08.519.519 0 01-.447.174.732.732 0 01-.099-.018.536.536 0 01-.245-.164c-.024-.024-.042-.054-.058-.08a.507.507 0 01-.057-.188z" fill="#747474"/></svg>