<svg width="28" height="27" fill="none" xmlns="http://www.w3.org/2000/svg"><g clip-path="url(#clip0_1_122)"><path d="M11.336 22.567c6.26 0 11.336-5.051 11.336-11.283C22.672 5.052 17.597 0 11.336 0 5.076 0 0 5.052 0 11.284c0 6.232 5.075 11.283 11.336 11.283z" fill="#FAF7F1"/><path fill-rule="evenodd" clip-rule="evenodd" d="M4.834 16.273a.48.48 0 01-.49-.47c-.01-2.56.999-5.028 2.819-6.906 1.821-1.879 4.32-3.027 6.991-3.215l-1.471-1.406a.462.462 0 01-.005-.675.515.515 0 01.706-.005L15.661 5.8c.19.184.19.478 0 .662L13.384 8.66a.51.51 0 01-.698.003.457.457 0 01-.003-.669l1.413-1.364c-2.4.2-4.634 1.254-6.258 2.953-1.625 1.7-2.521 3.92-2.514 6.222a.458.458 0 01-.143.331.502.502 0 01-.347.138h0zm14.785 7.5a9.833 9.833 0 01-6.875 1.003c-2.342-.513-4.39-1.859-5.732-3.764l1.923.497a.51.51 0 00.38-.038.474.474 0 00.238-.288.452.452 0 00-.053-.363.491.491 0 00-.31-.216l-3.115-.792a.508.508 0 00-.373.047.473.473 0 00-.23.286l-.83 3a.468.468 0 00.35.573.59.59 0 00.126 0 .489.489 0 00.491-.348l.54-1.945c1.462 2.14 3.73 3.662 6.333 4.25a10.84 10.84 0 007.652-1.1.478.478 0 00.27-.292.449.449 0 00-.055-.384.506.506 0 00-.73-.112v-.014zm7.29-3.675a.47.47 0 00-.231-.284.511.511 0 00-.373-.044l-2.02.52a9.8 9.8 0 00.63-7.415c-.772-2.46-2.486-4.551-4.8-5.857a.511.511 0 00-.38-.06.486.486 0 00-.308.221.454.454 0 00-.047.366.475.475 0 00.244.284c2.079 1.173 3.625 3.045 4.338 5.25a8.896 8.896 0 01-.487 6.672l-.49-1.847a.467.467 0 00-.222-.305.51.51 0 00-.385-.056.487.487 0 00-.306.23.446.446 0 00-.034.37l.833 3.005a.473.473 0 00.23.287.512.512 0 00.374.046l3.11-.807v.001a.465.465 0 00.324-.577h0z" fill="#747474" stroke="#747474" stroke-width=".55"/></g><defs><clipPath id="clip0_1_122"><path fill="#fff" d="M0 0h28v27H0z"/></clipPath></defs></svg>