<svg width="28" height="28" fill="none" xmlns="http://www.w3.org/2000/svg"><g clip-path="url(#clip0_1_111)"><path d="M11.702 23.403c6.462 0 11.701-5.239 11.701-11.701C23.403 5.239 18.164 0 11.702 0 5.239 0 0 5.239 0 11.702c0 6.462 5.239 11.701 11.702 11.701z" fill="#FAF7F1"/><path fill-rule="evenodd" clip-rule="evenodd" d="M15.602 3.9C9.148 3.9 3.901 9.149 3.901 15.603s5.247 11.702 11.701 11.702c6.454 0 11.702-5.248 11.702-11.702S22.056 3.901 15.602 3.901zm0 1.527a10.164 10.164 0 0110.175 10.175 10.164 10.164 0 01-10.175 10.175A10.164 10.164 0 015.427 15.602 10.164 10.164 0 0115.602 5.427zm-4.324 5.342a1.527 1.527 0 100 3.053 1.527 1.527 0 000-3.053zm8.649 0a1.527 1.527 0 100 3.053 1.527 1.527 0 000-3.053zm-10 7.123c-.674.03-.864.723-.557 1.184 1.364 2.041 3.65 3.395 6.232 3.395 2.583 0 4.868-1.354 6.233-3.395.222-.333.126-.835-.207-1.057-.333-.223-.843-.126-1.065.207-1.102 1.648-2.909 2.718-4.96 2.718-2.053 0-3.86-1.07-4.961-2.718-.207-.243-.47-.348-.716-.334z" fill="#747474" stroke="#747474" stroke-width=".25"/></g><defs><clipPath id="clip0_1_111"><path fill="#fff" d="M0 0h28v28H0z"/></clipPath></defs></svg>