<svg width="28" height="28" fill="none" xmlns="http://www.w3.org/2000/svg"><g clip-path="url(#clip0_1_96)"><path d="M13.3 26.602c7.347 0 13.302-5.955 13.302-13.301S20.647 0 13.3 0 0 5.955 0 13.3c0 7.347 5.955 13.302 13.3 13.302z" fill="#FAF7F1"/><path d="M15.867 27.224c6.272 0 11.357-5.085 11.357-11.357 0-6.273-5.085-11.358-11.357-11.358-6.273 0-11.358 5.085-11.358 11.358 0 6.272 5.085 11.357 11.358 11.357z" stroke="#747474" stroke-width="1.663"/><path fill-rule="evenodd" clip-rule="evenodd" d="M6.533 8.662L7.73 7.467l16.538 16.538L23.07 25.2 6.533 8.662z" fill="#747474"/><path d="M17.939 13.375V8.139h.762c.217 0 .393-.15.393-.336 0-.186-.176-.336-.393-.336h-5.669c-.217 0-.392.15-.392.336 0 .185.175.336.392.336h.762v5.236c-2.64.756-4.46 2.9-4.46 5.3 0 3.083 2.93 5.592 6.533 5.592 3.602 0 6.533-2.509 6.533-5.593 0-2.4-1.82-4.543-4.461-5.3zm-2.072 10.22c-3.17 0-5.749-2.208-5.749-4.92 0-2.187 1.717-4.131 4.176-4.73.169-.04.286-.172.286-.323V8.14h2.574v5.483c0 .15.116.283.285.323 2.459.599 4.176 2.543 4.176 4.73 0 2.712-2.579 4.92-5.748 4.92z" fill="#747474" stroke="#747474"/><path d="M18.48 17.22c-.197 0-.277-.052-.423-.145-.18-.116-.428-.275-.885-.275s-.705.159-.886.275c-.146.093-.226.144-.424.144-.197 0-.277-.05-.423-.144a1.474 1.474 0 00-.885-.275c-.456 0-.704.159-.885.275-.146.093-.226.144-.424.144-.2 0-.282-.05-.431-.144-.158-.099-.373-.234-.73-.264-.15-.013-.298.05-.367.159a3.146 3.146 0 00-.517 1.696c0 2.059 2.094 3.734 4.667 3.734s4.666-1.675 4.666-3.734c0-.584-.178-1.17-.516-1.697-.07-.108-.215-.169-.365-.159a1.52 1.52 0 00-.74.265c-.148.093-.23.144-.431.144z" fill="#747474"/></g><defs><clipPath id="clip0_1_96"><path fill="#fff" d="M0 0h28v28H0z"/></clipPath></defs></svg>